<svg width="20" height="20" viewBox="0 0 20 20" fill="none" xmlns="http://www.w3.org/2000/svg">
<g clip-path="url(#clip0)">
<path d="M19.5 8.65999C19.4994 8.65953 19.4989 8.65892 19.4984 8.65846L11.34 0.500337C10.9923 0.152436 10.5299 -0.0390625 10.0381 -0.0390625C9.54635 -0.0390625 9.084 0.152436 8.7361 0.500337L0.581946 8.65434C0.579199 8.65709 0.5763 8.65999 0.573706 8.66274C-0.140406 9.38097 -0.139186 10.5463 0.577216 11.2627C0.904517 11.5901 1.33665 11.7797 1.79884 11.7996C1.81776 11.8015 1.83668 11.8024 1.85575 11.8024H2.18076V17.8061C2.18076 18.9943 3.14756 19.961 4.33577 19.961H7.52761C7.85124 19.961 8.11354 19.6985 8.11354 19.375V14.668C8.11354 14.1259 8.55468 13.6849 9.09682 13.6849H10.9795C11.5216 13.6849 11.9626 14.1259 11.9626 14.668V19.375C11.9626 19.6985 12.2249 19.961 12.5485 19.961H15.7404C16.9287 19.961 17.8954 18.9943 17.8954 17.8061V11.8024H18.1969C18.6885 11.8024 19.1509 11.6109 19.4989 11.2628C20.2161 10.5454 20.2164 9.37792 19.5 8.65999V8.65999ZM18.6702 10.4343C18.5437 10.5608 18.3756 10.6305 18.1969 10.6305H17.3094C16.9858 10.6305 16.7235 10.8928 16.7235 11.2165V17.8061C16.7235 18.3481 16.2825 18.7891 15.7404 18.7891H13.1345V14.668C13.1345 13.4798 12.1678 12.513 10.9795 12.513H9.09682C7.90847 12.513 6.94167 13.4798 6.94167 14.668V18.7891H4.33577C3.79377 18.7891 3.35264 18.3481 3.35264 17.8061V11.2165C3.35264 10.8928 3.09034 10.6305 2.7667 10.6305H1.89451C1.88535 10.6299 1.87635 10.6294 1.86704 10.6293C1.69248 10.6262 1.52876 10.557 1.40607 10.4341C1.14515 10.1732 1.14515 9.74855 1.40607 9.48748C1.40623 9.48748 1.40623 9.48732 1.40638 9.48717L1.40684 9.48671L9.56496 1.32889C9.6913 1.2024 9.8593 1.13281 10.0381 1.13281C10.2168 1.13281 10.3848 1.2024 10.5113 1.32889L18.6676 9.48503C18.6688 9.48626 18.6702 9.48748 18.6714 9.4887C18.931 9.75008 18.9305 10.1738 18.6702 10.4343V10.4343Z" fill="white"/>
</g>
<defs>
<clipPath id="clip0">
<rect width="20" height="20" fill="white"/>
</clipPath>
</defs>
</svg>
