<svg width="131" height="43" viewBox="0 0 131 43" fill="none" xmlns="http://www.w3.org/2000/svg">
<g clip-path="url(#clip0)">
<path d="M130.919 10.2401C132.704 20.3509 104.863 33.5912 68.7281 39.8124C32.5989 46.0337 1.86342 42.8775 0.0817326 32.7613C-1.69995 22.6504 26.1491 9.41287 62.2783 3.19429C98.4103 -3.03232 129.14 0.126496 130.919 10.2401Z" fill="#034EA2"/>
<path d="M96.9124 25.2464L96.7283 14.734H100.08V27.9849H95.2607L91.9139 17.1111H91.8408L92.0277 27.9849H88.6945V14.734H93.7254L96.8393 25.2464H96.9124Z" fill="white"/>
<path d="M35.9614 15.9761L34.1066 28.1242H30.4485L32.9586 14.734H38.9832L41.4852 28.1242H37.8406L36.0372 15.9761H35.9614Z" fill="white"/>
<path d="M51.7556 24.9707L53.4289 14.734H58.9527L59.2451 28.1242H55.8605L55.7711 16.0859H55.7007L53.4371 28.1242H50.0009L47.7346 16.0859H47.6615L47.5775 28.1242H44.1848L44.4853 14.734H50.0118L51.6824 24.9707H51.7556Z" fill="white"/>
<path d="M24.746 24.347C24.8787 24.6709 24.8381 25.0885 24.7758 25.3401C24.6621 25.7845 24.3561 26.2396 23.4571 26.2396C22.6069 26.2396 22.0924 25.7577 22.0924 25.0242V23.7286H18.4586L18.4559 24.7646C18.4559 27.7494 20.8333 28.6515 23.3813 28.6515C25.8318 28.6515 27.8491 27.8243 28.1686 25.5917C28.3337 24.4353 28.2092 23.6777 28.155 23.3913C27.5837 20.5885 22.4417 19.7506 22.0599 18.1846C21.9949 17.9169 22.0139 17.6305 22.0464 17.4779C22.1412 17.0522 22.4363 16.5811 23.2838 16.5811C24.0745 16.5811 24.5429 17.0656 24.5429 17.7964C24.5429 18.0427 24.5429 18.6236 24.5429 18.6236H27.9195V17.684C27.9195 14.7661 25.2713 14.311 23.3542 14.311C20.9443 14.311 18.9758 15.0981 18.6157 17.2771C18.5182 17.8794 18.5047 18.4148 18.6455 19.0867C19.2385 21.8199 24.0474 22.6123 24.746 24.347Z" fill="white"/>
<path d="M68.7872 24.3229C68.9199 24.6441 68.8766 25.051 68.817 25.3026C68.706 25.747 68.4027 26.194 67.5092 26.194C66.6725 26.194 66.1607 25.7122 66.1607 24.9948L66.158 23.7098H62.5621L62.5567 24.7324C62.5567 27.6878 64.9124 28.5792 67.4333 28.5792C69.8568 28.5792 71.8551 27.7627 72.1719 25.5516C72.3371 24.4032 72.2206 23.6563 72.1611 23.3752C71.5924 20.5992 66.5046 19.7693 66.1255 18.2167C66.0605 17.949 66.0795 17.6679 66.112 17.5234C66.2095 17.0924 66.4992 16.6346 67.3386 16.6346C68.1238 16.6346 68.5814 17.1058 68.5814 17.8339C68.5814 18.0775 68.5814 18.6531 68.5814 18.6531H71.9336V17.7215C71.9336 14.8357 69.3071 14.3833 67.4063 14.3833C65.0235 14.3833 63.0712 15.1596 62.7192 17.3253C62.6217 17.9196 62.6109 18.4442 62.7517 19.1135C63.3338 21.8199 68.0967 22.6069 68.7872 24.3229Z" fill="white"/>
<path d="M80.1624 26.1218C81.102 26.1218 81.3944 25.4793 81.4594 25.15C81.4865 25.0055 81.4946 24.8127 81.4919 24.6387V14.7286H84.9172V24.3336C84.9253 24.5798 84.9009 25.0858 84.8874 25.2116C84.6464 27.7119 82.6481 28.523 80.1597 28.523C77.6685 28.523 75.6675 27.7119 75.4292 25.2116C75.4184 25.0858 75.394 24.5772 75.3995 24.3336V14.7286H78.822V24.6361C78.822 24.8101 78.8275 25.0055 78.8545 25.1474C78.9304 25.4766 79.2147 26.1218 80.1624 26.1218Z" fill="white"/>
<path d="M108.418 25.98C109.398 25.98 109.742 25.3669 109.804 25.0109C109.828 24.8583 109.836 24.6709 109.834 24.5023V22.5588H108.445V20.6046H113.248V24.1998C113.245 24.4514 113.24 24.6361 113.199 25.0832C112.975 27.5192 110.836 28.3892 108.437 28.3892C106.032 28.3892 103.898 27.5192 103.668 25.0832C103.63 24.6361 103.625 24.4514 103.62 24.1998L103.622 18.5621C103.622 18.3239 103.652 17.9036 103.679 17.6787C103.98 15.1758 106.032 14.37 108.437 14.37C110.838 14.37 112.942 15.1704 113.191 17.6787C113.235 18.1044 113.221 18.5621 113.221 18.5621V19.0092H109.807V18.2596C109.809 18.2623 109.801 17.9411 109.763 17.751C109.706 17.4539 109.447 16.7739 108.412 16.7739C107.424 16.7739 107.137 17.4164 107.064 17.751C107.023 17.9277 107.007 18.1659 107.007 18.3828V24.5076C107.004 24.6763 107.015 24.8637 107.042 25.0163C107.096 25.3669 107.437 25.98 108.418 25.98Z" fill="white"/>
</g>
<defs>
<clipPath id="clip0">
<rect width="131" height="43" fill="white"/>
</clipPath>
</defs>
</svg>
